<svg enable-background="new 0 0 64 64" height="64" viewBox="0 0 64 64" width="64" xmlns="http://www.w3.org/2000/svg"><path d="m28.941 31.786-28.328 28.328c-.787.787-.787 2.062 0 2.849.393.394.909.59 1.424.59.516 0 1.031-.196 1.424-.59l28.541-28.541 28.541 28.541c.394.394.909.59 1.424.59s1.031-.196 1.424-.59c.787-.787.787-2.062 0-2.849l-28.327-28.328 28.346-28.348c.787-.787.787-2.062 0-2.849-.787-.786-2.062-.786-2.848 0l-28.559 28.561-28.562-28.56c-.787-.786-2.061-.786-2.848 0-.787.787-.787 2.062 0 2.849z" fill="#1d1d1b"/></svg>