<svg enable-background="new 0 0 512 512" height="512" viewBox="0 0 512 512" width="512" xmlns="http://www.w3.org/2000/svg"><path d="m444.233 169.659c-9.64-96.727-90.562-169.659-188.222-169.659-104.334 0-189.213 84.878-189.213 189.212 0 41.238 12.957 80.324 37.489 113.062l137.876 202.356c3.109 4.609 8.293 7.369 13.847 7.369s10.738-2.76 13.847-7.369l137.496-201.855c28.576-37.944 41.672-85.225 36.88-133.116zm-188.222 103.03c-46.031 0-83.476-37.445-83.476-83.476s37.444-83.476 83.476-83.476c46.031 0 83.476 37.445 83.476 83.476s-37.445 83.476-83.476 83.476z" fill="#999"/></svg>