<svg enable-background="new 0 0 232.333 232.333" viewBox="0 0 232.333 232.333" xmlns="http://www.w3.org/2000/svg"><path d="m205.262 103.699c2.808-10.145 1.126-24.127-7.888-32.497 1.739-7.042 1.702-15.878-1.899-23.703-2.427-5.272-6.24-9.397-11.017-12.013-.166-4.677-1.302-10.208-4.609-15.684-5.291-8.757-14.408-14.84-27.372-18.08-5.452-1.364-17.236-1.722-17.236-1.722h-.28c-21.872 0-47.307 8.831-73.643 25.869l-27.269 4.076c-8.145 1.245-14.141 8.047-14.141 16.289v79.825c0 6.707 4.81 9.88 8.609 12.43 2.111 1.417 5.014 3.256 8.325 5.385 9.237 5.937 24.717 15.874 29.947 20.943 6.534 6.338 12.574 17.456 18.955 29.227 4.106 7.572 8.358 15.402 13.263 23.025 6.243 9.701 15.596 15.265 25.656 15.265 8.583 0 16.793-4.2 21.958-11.233 5.746-7.825 7.196-18.199 3.976-28.463-3.559-11.343-8.114-24.58-14.909-36.764-.079-.143-.154-.296.008-.57.166-.285.334-.303.496-.303h48.991c11.977 0 21.461-6.717 25.371-17.998 3.888-11.213 1.518-24.716-5.292-33.304zm-20.077 39.301h-48.991c-9.59 0-15.655 10.324-10.984 18.7 5.74 10.292 9.922 21.717 13.939 34.521 4.34 13.83-4.379 24.107-14.482 24.107-5.383 0-11.156-2.911-15.563-9.756-12.673-19.692-21.597-42.319-34.024-54.373-9.818-9.517-43.171-28.936-43.171-30.14v-79.825c0-2.254 1.728-4.17 3.956-4.511l28.829-4.403c.643-.099 1.282-.339 1.826-.696 25.968-17.054 49.343-24.956 68.432-24.957 5.143 0 9.975.574 14.466 1.697 22.348 5.586 23.771 19.317 22.862 26.446-.294 2.303 1.166 4.409 3.408 5.007 11.943 3.181 12.495 19.43 8.711 27.308-1.057 2.201-.041 4.788 2.109 5.943 8.914 4.793 9.573 18.796 6.054 25.368-1.007 1.882-.501 4.233 1.175 5.554 9.769 7.698 10.299 34.01-8.552 34.01z"/></svg>