<svg enable-background="new 0 0 375.047 375.047" viewBox="0 0 375.047 375.047" xmlns="http://www.w3.org/2000/svg"><path d="m317.569 209.557c15.95 0 28.87-12.93 28.87-28.87 0-7.97-3.23-15.19-8.45-20.42-5.23-5.23-12.44-8.46-20.42-8.46h-92.631c-22.84 0-37.39-24.58-26.21-44.49 14.74-26.23 19.98-54.69 18.68-68.33-2.05-21.52-15.73-39.78-37.34-38.96l-.62.02c-12.32.47-22.18 10.28-22.89 22.61-2.11 36.25-31.02 72.52-56.83 102.53-7.69 8.93-14.14 18.85-19.15 29.51-2.04 4.33-5.24 7.88-9.12 10.34-3.88 2.47-8.44 3.85-13.23 3.85h-29.62v192.57c18.857 0 37.618 2.685 55.718 7.975 12.743 3.724 25.951 5.615 39.227 5.615h126.016 37.591c6.9 0 13.16-2.8 17.68-7.32 4.607-4.617 7.427-11.011 7.317-18.08-.214-13.744-11.813-24.6-25.559-24.6l13.565-.003c15.946 0 28.872-12.927 28.872-28.872 0-15.946-12.927-28.872-28.872-28.872h12.307c15.946 0 28.872-12.927 28.872-28.872 0-15.946-12.927-28.872-28.872-28.872z" fill="#fcd09f"/></svg>